<svg width="268" height="268" viewBox="0 0 268 268" fill="none" xmlns="http://www.w3.org/2000/svg">
<g clip-path="url(#clip0_559_4)">
<path d="M134.195 0.0870796C168.329 -1.90871 197.957 26.4662 200.513 59.7439C200.946 65.2106 203.459 67.0329 208.57 67.4667C238.762 70.1567 258.687 87.8151 265.618 115.626C274.238 150.249 259.467 186.086 219.399 197.757C214.678 199.146 210.259 201.271 205.191 201.011C201.639 200.838 200.643 203.007 200.47 206.304C199.257 230.08 187.085 247.261 167.289 259.019C131.77 280.062 83.1683 262.577 70.6498 222.531C70.0866 220.796 68.6139 219.017 68.8305 217.411C70.823 201.792 59.3008 200.317 48.6882 197.757C26.5101 192.464 11.7825 178.103 4.54859 157.277C-9.44268 116.884 9.57331 80.1357 48.6449 69.4625C62.5496 65.6879 66.8379 61.3492 69.6968 48.3332C74.8948 24.644 91.5717 9.89249 114.096 2.25642C120.334 0.173853 127.481 0.737881 134.195 0.0870796ZM134.975 167.473C138.657 167.864 140.693 167.126 141.343 162.874C143.248 150.856 150.309 143.35 162.568 141.658C167.549 140.964 167.203 137.797 167.203 134.369C167.203 130.898 167.506 127.688 162.524 127.124C150.872 125.779 144.461 118.316 141.516 107.556C140.606 104.172 140.693 101.265 135.755 101.091C130.99 100.918 129.3 102.914 128.174 106.992C125.099 118.142 118.645 125.779 106.429 127.297C102.271 127.818 100.971 130.681 100.971 134.543C100.971 138.057 102.487 140.877 105.91 141.311C118.948 142.873 125.532 150.986 128.564 162.918C129.43 166.302 131.38 168.341 134.975 167.473Z" fill="#7B3801"/>
</g>
<defs>
<clipPath id="clip0_559_4">
<rect width="268" height="268" fill="white"/>
</clipPath>
</defs>
</svg>
