<svg width="781" height="101" viewBox="0 0 781 101" fill="none" xmlns="http://www.w3.org/2000/svg">
<path d="M127.65 51.8998C130.5 56.6998 132 62.3998 132 68.3998C132 86.2498 117.6 100.8 99.5999 100.8H33.4499V100.95H-9.75356e-05V-0.000202894H84.4499C93.4499 -0.000202894 101.55 3.5998 107.4 9.4498C113.25 15.4498 117 23.5498 117 32.5498C117 35.2498 116.55 37.7998 115.95 40.3498C120.75 43.0498 124.8 47.0998 127.65 51.8998ZM33.2999 28.4998V32.2498H82.4999C83.5499 32.2498 84.2999 31.3498 84.2999 30.2998C84.2999 29.2498 83.5499 28.4998 82.4999 28.4998H33.2999ZM98.2499 68.6998C98.3999 68.5498 98.5499 68.2498 98.5499 68.0998C98.5499 67.6498 98.3999 67.3498 98.0999 67.1998C97.7999 66.5998 97.1999 66.2998 96.4499 66.2998H33.2999V70.0498H96.4499C97.3499 70.0498 98.0999 69.4498 98.2499 68.6998ZM202.216 100.95L198.616 92.8498H162.316L158.716 100.95H130.966L166.216 23.0998H194.716L230.116 100.95H202.216ZM174.166 67.0498H186.916L180.466 52.9498L174.166 67.0498ZM335.433 23.0998V49.0498L289.833 74.8498H335.433V100.95H234.933L234.483 74.8498L280.083 49.0498H234.483V23.0998H335.433ZM411.25 100.95L407.65 92.8498H371.35L367.75 100.95H340L375.25 23.0998H403.75L439.15 100.95H411.25ZM383.2 67.0498H395.95L389.5 52.9498L383.2 67.0498ZM521.216 -0.000202894L567.116 100.95H530.966L526.316 90.5998H479.366L474.566 100.95H438.566L484.316 -0.000202894H521.216ZM494.516 56.9998H511.016L502.766 38.8498L494.516 56.9998ZM646.261 100.95L632.611 74.5498H597.961V100.95H572.161V23.0998H646.411C660.511 23.0998 672.061 34.6498 672.061 48.8998C672.061 59.0998 665.911 68.0998 657.211 72.1498L672.211 100.95H646.261ZM597.961 45.7498V48.5998H644.761C645.511 48.5998 646.261 47.9998 646.261 47.2498C646.261 46.3498 645.511 45.7498 644.761 45.7498H597.961ZM679.834 22.1998H780.784L768.934 47.5498H743.284V100.8H717.184V47.5498H691.534L679.834 22.1998Z" fill="black"/>
</svg>
