<svg width="667" height="87" viewBox="0 0 667 87" fill="none" xmlns="http://www.w3.org/2000/svg">
<path d="M108.928 44.2881C111.36 48.3841 112.64 53.2481 112.64 58.3681C112.64 73.6001 100.352 86.0161 84.9918 86.0161H28.5438V86.1441H-0.000187397V0.000106812H72.0638C79.7438 0.000106812 86.6558 3.07211 91.6478 8.06411C96.6398 13.1841 99.8398 20.0961 99.8398 27.7761C99.8398 30.0801 99.4558 32.2561 98.9438 34.4321C103.04 36.7361 106.496 40.1921 108.928 44.2881ZM28.4158 24.3201V27.5201H70.3998C71.2958 27.5201 71.9358 26.7521 71.9358 25.8561C71.9358 24.9601 71.2958 24.3201 70.3998 24.3201H28.4158ZM83.8398 58.6241C83.9678 58.4961 84.0958 58.2401 84.0958 58.1121C84.0958 57.7281 83.9678 57.4721 83.7118 57.3441C83.4558 56.8321 82.9438 56.5761 82.3038 56.5761H28.4158V59.7761H82.3038C83.0718 59.7761 83.7118 59.2641 83.8398 58.6241ZM172.558 86.1441L169.486 79.2321H138.51L135.438 86.1441H111.758L141.838 19.7121H166.158L196.366 86.1441H172.558ZM148.622 57.2161H159.502L153.998 45.1841L148.622 57.2161ZM286.236 19.7121V41.8561L247.324 63.8721H286.236V86.1441H200.476L200.092 63.8721L239.004 41.8561H200.092V19.7121H286.236ZM350.933 86.1441L347.861 79.2321H316.885L313.813 86.1441H290.133L320.213 19.7121H344.533L374.741 86.1441H350.933ZM326.997 57.2161H337.877L332.373 45.1841L326.997 57.2161ZM444.771 0.000106812L483.939 86.1441H453.091L449.123 77.3121H409.059L404.963 86.1441H374.243L413.283 0.000106812H444.771ZM421.987 48.6401H436.067L429.027 33.1521L421.987 48.6401ZM551.476 86.1441L539.828 63.6161H510.26V86.1441H488.244V19.7121H551.604C563.636 19.7121 573.492 29.5681 573.492 41.7281C573.492 50.4321 568.244 58.1121 560.82 61.5681L573.62 86.1441H551.476ZM510.26 39.0401V41.4721H550.196C550.836 41.4721 551.476 40.9601 551.476 40.3201C551.476 39.5521 550.836 39.0401 550.196 39.0401H510.26ZM580.125 18.9441H666.269L656.157 40.5761H634.269V86.0161H611.997V40.5761H590.109L580.125 18.9441Z" fill="white"/>
</svg>
