<svg width="505" height="455" viewBox="0 0 505 455" fill="none" xmlns="http://www.w3.org/2000/svg">
<g clip-path="url(#clip0_6_255)">
<path d="M253.501 1.19113C296.044 1.04233 338.67 -1.4129 380.965 1.19113C447.83 5.28318 495.155 61.2326 485.179 121.572C481.139 145.826 480.067 170.007 485.839 193.741C489.879 210.332 482.211 211.82 467.7 209.662C441.894 205.868 416.088 202.892 390.529 210.927C373.215 208.844 355.407 211.671 338.34 206.761C291.015 192.848 265.621 161.451 253.254 119.712C253.254 80.2048 253.336 40.698 253.419 1.11673L253.501 1.19113Z" fill="#FFE701"/>
<path d="M248.732 0.598516C248.732 40.6751 248.648 80.7516 248.564 120.904C237.035 164.905 209.215 195.623 160.425 209.208C141.878 209.208 123.331 209.208 104.784 209.208C79.6374 208.982 54.574 207.321 29.5942 211.85C17.7309 214.038 12.2169 210.189 14.3891 198.415C19.4853 171.094 17.8144 143.772 14.3055 116.3C6.61942 57.0529 60.0044 1.5042 125.67 0.296621C166.691 -0.458116 207.711 0.447569 248.732 0.598516Z" fill="#FFE701"/>
<path d="M256.519 230.206C299.611 230.056 342.786 227.583 385.628 230.206C453.356 234.327 501.291 290.676 491.186 351.446C487.094 375.874 486.009 400.227 491.854 424.131C495.946 440.841 488.18 442.339 473.482 440.166C447.343 436.345 421.204 433.347 395.315 441.44C377.778 439.342 359.739 442.189 342.452 437.244C294.517 423.232 268.795 391.61 256.269 349.573C256.269 309.784 256.352 269.995 256.436 230.131L256.519 230.206Z" fill="#FFE701"/>
<path d="M251.746 229.605C251.746 269.681 251.663 309.758 251.579 349.91C240.05 393.911 212.23 424.629 163.44 438.214C144.893 438.214 126.346 438.214 107.799 438.214C82.652 437.988 57.5887 436.327 32.6088 440.856C20.7455 443.045 15.2316 439.195 17.4037 427.422C22.4999 400.1 20.829 372.779 17.3202 345.306C9.63407 286.059 63.019 230.511 128.685 229.303C169.705 228.548 210.726 229.454 251.746 229.605Z" fill="#FFE701"/>
</g>
<defs>
<clipPath id="clip0_6_255">
<rect width="505" height="455" fill="white"/>
</clipPath>
</defs>
</svg>
